<svg width="40" height="40" viewBox="0 0 40 40" fill="none" xmlns="http://www.w3.org/2000/svg">
    <circle cx="20" cy="20" r="18" fill="#0E61E6"/>
    <path d="M7.00488 24V16.9043H8.43359V17.6562H8.46094C8.93034 17.0957 9.54785 16.8154 10.3135 16.8154C10.8057 16.8245 11.2021 16.9089 11.5029 17.0684C11.7992 17.2461 12.0703 17.4717 12.3164 17.7451C12.8724 17.1162 13.6175 16.8063 14.5518 16.8154C15.1396 16.8154 15.6774 17.0228 16.165 17.4375C16.6481 17.8568 16.8988 18.472 16.917 19.2832V24H15.4883V19.7754C15.4883 19.2786 15.3584 18.9004 15.0986 18.6406C14.8389 18.3763 14.5039 18.2441 14.0938 18.2441C13.6836 18.2441 13.3464 18.3763 13.082 18.6406C12.8132 18.9004 12.6787 19.2786 12.6787 19.7754V24H11.25V19.7754C11.25 19.2786 11.1201 18.9004 10.8604 18.6406C10.596 18.3763 10.2588 18.2441 9.84863 18.2441C9.43848 18.2441 9.10352 18.3763 8.84375 18.6406C8.57031 18.9004 8.43359 19.2786 8.43359 19.7754V24H7.00488Z"
          fill="white"/>
    <path d="M18.5098 20.4453C18.5098 19.6979 18.5713 19.1237 18.6943 18.7227C18.8219 18.3307 19.0179 18.0003 19.2822 17.7314C19.4782 17.4945 19.7516 17.2826 20.1025 17.0957C20.4489 16.918 20.8932 16.8245 21.4355 16.8154C21.9961 16.8245 22.4495 16.918 22.7959 17.0957C23.1377 17.2826 23.402 17.4945 23.5889 17.7314C23.8714 18.0003 24.0719 18.3307 24.1904 18.7227C24.3044 19.1237 24.3613 19.6979 24.3613 20.4453C24.3613 21.1927 24.3044 21.7624 24.1904 22.1543C24.0719 22.5462 23.8714 22.8857 23.5889 23.1729C23.4977 23.2777 23.3861 23.3802 23.2539 23.4805C23.1354 23.5944 22.9827 23.6924 22.7959 23.7744C22.4495 23.9704 21.9961 24.0729 21.4355 24.082C20.8932 24.0729 20.4489 23.9704 20.1025 23.7744C19.7516 23.5967 19.4782 23.3962 19.2822 23.1729C19.0179 22.8857 18.8219 22.5462 18.6943 22.1543C18.5713 21.7624 18.5098 21.1927 18.5098 20.4453ZM22.9326 20.459C22.9326 19.9531 22.9098 19.584 22.8643 19.3516C22.8187 19.1283 22.7253 18.9323 22.584 18.7637C22.4792 18.6042 22.3242 18.4788 22.1191 18.3877C21.9232 18.292 21.6953 18.2441 21.4355 18.2441C21.194 18.2441 20.9707 18.292 20.7656 18.3877C20.5697 18.4788 20.4102 18.6042 20.2871 18.7637C20.1641 18.9323 20.0752 19.1283 20.0205 19.3516C19.9658 19.584 19.9385 19.9486 19.9385 20.4453C19.9385 20.9375 19.9658 21.2975 20.0205 21.5254C20.0752 21.7578 20.1641 21.9629 20.2871 22.1406C20.4102 22.2773 20.5697 22.3981 20.7656 22.5029C20.9707 22.6032 21.194 22.6533 21.4355 22.6533C21.6953 22.6533 21.9232 22.6032 22.1191 22.5029C22.3242 22.3981 22.4792 22.2773 22.584 22.1406C22.7253 21.9629 22.8187 21.7578 22.8643 21.5254C22.9098 21.2975 22.9326 20.9421 22.9326 20.459Z"
          fill="white"/>
    <path d="M25.8584 22.2773V14.0332H27.2871V22.168C27.2871 22.4915 27.4648 22.6533 27.8203 22.6533H28.3125V24H27.6768C27.1572 24 26.7288 23.8701 26.3916 23.6104C26.0361 23.346 25.8584 22.9017 25.8584 22.2773Z"
          fill="white"/>
    <path d="M33.1934 24V23.3711H33.166C33.0339 23.6126 32.8288 23.7904 32.5508 23.9043C32.2773 24.0228 31.8991 24.082 31.416 24.082C30.623 24.0729 30.0124 23.8633 29.584 23.4531C29.1328 23.0521 28.9072 22.5394 28.9072 21.915C28.9072 21.318 29.1032 20.8236 29.4951 20.4316C29.887 20.0306 30.4613 19.8255 31.2178 19.8164H33.1934V19.0713C33.2025 18.4469 32.7171 18.1439 31.7373 18.1621C31.3818 18.1621 31.1016 18.1986 30.8965 18.2715C30.6823 18.3581 30.5137 18.5039 30.3906 18.709L29.2695 17.8545C29.8118 17.1436 30.6117 16.7972 31.6689 16.8154C32.5622 16.8063 33.2754 16.9749 33.8086 17.3213C34.3418 17.6768 34.613 18.2874 34.6221 19.1533V24H33.1934ZM33.1934 21.5049V20.9922H31.4844C30.6549 21.0104 30.2448 21.2952 30.2539 21.8467C30.2539 22.0882 30.361 22.2933 30.5752 22.4619C30.7803 22.6488 31.1198 22.7422 31.5938 22.7422C32.1908 22.7513 32.6123 22.6807 32.8584 22.5303C33.0817 22.3799 33.1934 22.0381 33.1934 21.5049Z"
          fill="white"/>
</svg>
